/* XPM */
static char *_34059715c5a4438f1c1996e38a40b7eAHrrmadtAwohuoa6[] = {
/* columns rows colors chars-per-pixel */
"64 64 256 2 ",
"   c black",
".  c #1F170B",
"X  c #170F07",
"o  c #4B4B4B",
"O  c white",
"+  c #1B1B1B",
"@  c #131313",
"#  c #0B0B0B",
"$  c #070707",
"%  c #2F371F",
"&  c #232B0F",
"*  c #171F07",
"=  c #0F1700",
"-  c #4F3B2B",
";  c #473323",
":  c #3F2B1B",
">  c #FFB7B7",
",  c #F7ABAB",
"<  c #F3A3A3",
"1  c #EB9797",
"2  c #E78F8F",
"3  c #DF8787",
"4  c #DB7B7B",
"5  c #D37373",
"6  c #CB6B6B",
"7  c #C76363",
"8  c #BF5B5B",
"9  c #BB5757",
"0  c #B34F4F",
"q  c #AF4747",
"w  c #A73F3F",
"e  c #A33B3B",
"r  c #9B3333",
"t  c #972F2F",
"y  c #8F2B2B",
"u  c #8B2323",
"i  c #831F1F",
"p  c #7F1B1B",
"a  c #771717",
"s  c #731313",
"d  c #6B0F0F",
"f  c #670B0B",
"g  c #5F0707",
"h  c #5B0707",
"j  c #530707",
"k  c #4F0000",
"l  c #470000",
"z  c #430000",
"x  c #FFEBDF",
"c  c #FFE3D3",
"v  c #FFDBC7",
"b  c #FFD3BB",
"n  c #FFCFB3",
"m  c #FFC7A7",
"M  c #FFBF9B",
"N  c #FFBB93",
"B  c #FFB383",
"V  c #F7AB7B",
"C  c #EFA373",
"Z  c #E79B6B",
"A  c #DF9363",
"S  c #D78B5B",
"D  c #CF8353",
"F  c #CB7F4F",
"G  c #BF7B4B",
"H  c #B37347",
"J  c #AB6F43",
"K  c #A36B3F",
"L  c #9B633B",
"P  c #8F5F37",
"I  c #875733",
"U  c #7F532F",
"Y  c #774F2B",
"T  c #6B4727",
"R  c #5F4323",
"E  c #533F1F",
"W  c #4B371B",
"Q  c #3F2F17",
"!  c #332B13",
"~  c #2B230F",
"^  c #EFEFEF",
"/  c #E7E7E7",
"(  c #DFDFDF",
")  c gray86",
"_  c LightGray",
"`  c #CBCBCB",
"'  c gray78",
"]  c gray75",
"[  c #B7B7B7",
"{  c gray70",
"}  c gray67",
"|  c #A7A7A7",
" . c #9F9F9F",
".. c #979797",
"X. c #939393",
"o. c #8B8B8B",
"O. c #838383",
"+. c gray50",
"@. c #777777",
"#. c #6F6F6F",
"$. c gray42",
"%. c gray39",
"&. c #5B5B5B",
"*. c gray34",
"=. c gray31",
"-. c gray28",
";. c #434343",
":. c gray23",
">. c #373737",
",. c #2F2F2F",
"<. c #272727",
"1. c #232323",
"2. c #77FF6F",
"3. c #6FEF67",
"4. c #67DF5F",
"5. c #5FCF57",
"6. c #5BBF4F",
"7. c #53AF47",
"8. c #4B9F3F",
"9. c #439337",
"0. c #3F832F",
"q. c #37732B",
"w. c #2F6323",
"e. c #27531B",
"r. c #1F4317",
"t. c #17330F",
"y. c #13230B",
"u. c #0B1707",
"i. c #BFA78F",
"p. c #B79F87",
"a. c #AF977F",
"s. c #A78F77",
"d. c #9F876F",
"f. c #9B7F6B",
"g. c #937B63",
"h. c #8B735B",
"j. c #836B57",
"k. c #7B634F",
"l. c #775F4B",
"z. c #6F5743",
"x. c #67533F",
"c. c #5F4B37",
"v. c #574333",
"b. c #533F2F",
"n. c #9F8363",
"m. c #8F7753",
"M. c #836B4B",
"N. c #775F3F",
"B. c #675333",
"V. c #5B472B",
"C. c #4F3B23",
"Z. c #43331B",
"A. c #7B7F63",
"S. c #6F7357",
"D. c #676B4F",
"F. c #5B6347",
"G. c #53573B",
"H. c #474F33",
"J. c #3F472B",
"K. c #373F27",
"L. c #FFFF73",
"P. c #EBDB57",
"I. c #D7BB43",
"U. c #C39B2F",
"Y. c #AF7B1F",
"T. c #9B5B13",
"R. c #874307",
"E. c #732B00",
"W. c white",
"Q. c #FFDBDB",
"!. c #FFBBBB",
"~. c #FF9B9B",
"^. c #FF7B7B",
"/. c #FF5F5F",
"(. c #FF3F3F",
"). c #FF1F1F",
"_. c red",
"`. c #EF0000",
"'. c #E30000",
"]. c #D70000",
"[. c #CB0000",
"{. c #BF0000",
"}. c #B30000",
"|. c #A70000",
" X c #9B0000",
".X c #8B0000",
"XX c #7F0000",
"oX c #730000",
"OX c #670000",
"+X c #5B0000",
"@X c #4F0000",
"#X c #430000",
"$X c #E7E7FF",
"%X c #C7C7FF",
"&X c #ABABFF",
"*X c #8F8FFF",
"=X c #7373FF",
"-X c #5353FF",
";X c #3737FF",
":X c #1B1BFF",
">X c blue",
",X c #0000E3",
"<X c #0000CB",
"1X c #0000B3",
"2X c #00009B",
"3X c #000083",
"4X c #00006B",
"5X c #000053",
"6X c white",
"7X c #FFEBDB",
"8X c #FFD7BB",
"9X c #FFC79B",
"0X c #FFB37B",
"qX c #FFA35B",
"wX c #FF8F3B",
"eX c #FF7F1B",
"rX c #F37317",
"tX c #EB6F0F",
"yX c #DF670F",
"uX c #D75F0B",
"iX c #CB5707",
"pX c #C34F00",
"aX c #B74700",
"sX c #AF4300",
"dX c white",
"fX c #FFFFD7",
"gX c #FFFFB3",
"hX c #FFFF8F",
"jX c #FFFF6B",
"kX c #FFFF47",
"lX c #FFFF23",
"zX c yellow",
"xX c #A73F00",
"cX c #9F3700",
"vX c #932F00",
"bX c #872300",
"nX c #4F3B27",
"mX c #432F1B",
"MX c #372313",
"NX c #2F1B0B",
"BX c #000053",
"VX c #000047",
"CX c #00003B",
"ZX c #00002F",
"AX c #000023",
"SX c #000017",
"DX c #00000B",
"FX c cyan",
"GX c #FF9F43",
"HX c #FFE74B",
"JX c #FF7BFF",
"KX c magenta",
"LX c #CF00CF",
"PX c #9F009B",
"IX c #6F006B",
"UX c #A76B6B",
/* pixels */
"1.,.1.#.+.o...| | | | | | | | | | | | | | | | | | | | | ..o.+.#.1.,.1.#.+.o...| | | | | | | | | | | | | | | | | | | | | ..o.+.#.",
"1.,.1.*.........................o.o.o.o...o...o...o...o...o...%.1.,.1.*.........................o.o.o.o...o...o...o...o...o...%.",
"1.,.1.*.....o.z z z z z z z z z z z z z z z ~ ~ ~ ~ ~ ~ ~ ~ ~ ~ ~ ~ z z z z z z z z z z z z z z z z z z z z z z z z z z #...o.%.",
"1.,.1.*.o.o...z z z z z z z z z z z z z z ~ ~ ~ ! ! ! ! ! ~ ~ ~ ~ ~ ~ ~ ~ z z z z z z z z z z z z z z z z z z z z z z z o +.o.%.",
"1.,.1.*.o...o.z z z z z z z z z z z z ~ ~ ! ! Q E R R R E E Q Q Q Q ~ ~ ~ ~ ~ z z z z z z z z z z z z z z z z z z z z z o o.+.%.",
"1.,.1.*.o...o.z z z z z z z z z z z ! Q W W E Y P L L I I Y Y Y Y Y E Q ~ ~ ~ ~ ~ z z z z z z z z z z z z z z z z z z z o o.+.%.",
"1.,.1.*.o.o...z z z z z z z z z z Q E E Y P H G F F F D F F F F F F K K Y R ! ~ ~ ~ ~ z z z z z z z z z z z z z z z z z o +.+.%.",
"1.,.1.*.o.o.o.z z z z z z z z k Q R I H G G F F F F F F F F F F F F F G H H I R W ~ ~ ~ z z z z z z z z z z z z z z z z o +.o.%.",
"1.,.1.*.o.o.+.z z z z z z z z k R I K G G F F F F F F F F F F F F F G G H H H L U R ~ ~ ~ ~ z z z z z z z z z z z z z z o +.+.%.",
"1.,.1.*.+.#.o.z z z z z z k k T I H G G G G G F F F F F F F F F G G G G G G H H L U T Q ~ ~ ~ z z z z z z z z z z z z z o #.+.%.",
"1.,.1.*.+.%.#.k z k z k k +XR P H G G G G G G G F F F F F F G G G G G G G G G H L I Y R Q ~ ~ ~ z z z k z k z k z k z z ;.+.#.%.",
"1.,.1.*.%.%.%.k k k k k +X+XU K H G G G G G G G G F G F G G G H H H H G G G G G K L I Y R W ~ ~ ~ z z z k k k z k k k z ;.+.#.%.",
"1.,.1.*.#.%.#.+Xk +Xk +X+XR L G H G G F F F F F G F G F G H K P Y Y I H H G F F H L U T T R W ~ ~ ~ z z k k k k k +Xk k ;.%.%.%.",
"1.,.1.o o o o +X+X+X+X+X+XU H H G G G F F F F F G F K K L Y E Q Q ! Q T R T T U H I Y R R R T Q ~ ~ ~ z k k k k +Xk +Xk ,.o o o ",
"1.1.1.1.1.1.1.+X+X+X+X+XR H H G G G G G G H L G G F H P E Q ~ ~ ~ Q Q R R E Q Q E R T E Q E R W Q ~ ~ z z k k +X+X+Xk +X+ 1.1.1.",
"1.1.1.1.1.1.1.+X+X+X+X+XU H G G G G G U T R Y H F F H Y ! ~ ~ ~ ! E U U T E Q ! ~ ~ ~ ! ! Q E W Q ~ ~ ~ z z +X+X+X+X+X+X1.1.1.1.",
",.,.,.,.,.,.,.+X+XOX+XR L H G G G I R Q Q Q E P F F H Y ~ ~ ~ ~ W E Q Q ! ~ ~ ~ ~ ~ ~ ~ ~ ! Q Q Q Q ~ ~ ~ z k +X+X+X+X+X,.,.,.,.",
"| | | | | | | +XOXOXOXU K G G L I R Q ~ ~ ~ ~ Y F F H U ~ ~ ~ ! ! ! W ~ ~ ~ ~ ~ ~ ~ ~ ~ ~ ! Q Q Q ! ~ ~ ~ ~ k +X+X+X+X+X*.| | | ",
"o.o.o...o...o.OX+XOXoXP H H G H L P E Q Q Q ~ Y F F H U ~ ~ ~ ~ E L T E Q Q ~ ~ ~ ~ ~ ~ ~ ~ Q Q Q ~ ~ ~ ~ ~ z +X+XOX+XOX*.o.o.o.",
"o.o.o.o...o...+XOXOXT L H H G H L U R E ! ! ~ Y F F H Y ~ ~ Q T L H H H H L R W Q Q ! ~ ~ ~ Q Q ! ~ ~ ~ ~ ~ z +XOXOXOX+Xo o.o.o.",
"o.o.o...o...o.OXOXE U H H H H P E ~ ~ W Q Q Q P F F H Y W Q T K G G H L P U Y Y Y T R E E E W Q ! ~ ~ ~ ~ ~ ~ k +XOX+XOXo o.o.o.",
"..o.+.o.o.o.o.OXOXW I H H H P Q Q ~ ! U E U K H G G L U R T U P K G H F G G G G G G K P U R W Q ~ ~ ~ ~ ~ ~ ~ z OXOXOXOX*.o.....",
"+...+.+.o.+.o.OXE W P H H P E ~ Q T P H H H G G G G P T T K L T Y H G F F G G G H K L L I T E Q ~ ~ ~ ~ ~ ~ ~ z OXOXOXOXo ..+.+.",
"o.o...o.o.o...OXW W L H K R Q R L K H H G G G G H Y E Q W E E W E L H H H H H K K K L P U T E Q ~ ~ ~ ~ ~ ~ ~ ~ +XOXOXOXo ..o.o.",
"..o.+.o.o.o.o.OXQ W L H H T Y H K H G G G G G K W Q ~ ~ ~ ~ ~ ~ ~ E H G H H K L L P P U T R W ! ~ ~ ~ ~ ~ ~ ~ ~ k OXOXOX*.o.....",
"+...+.+.o.+.o.OX! W L H K I L H G G G G G K T W ~ ~ ~ ~ ~ ~ ~ ~ ~ ~ ! H H K L L P I U Y R W Q ! ~ ~ ~ ~ ~ ~ ~ ~ z OXOXOXo ..+.+.",
"+.+.+.+.+.o.+.OX! W L G H H G G F F G H P R Q ~ ~ ~ ~ ~ ~ ~ ~ ~ ~ ~ ~ E L L L P I U T T E Q ! ~ ~ ~ ~ ~ ~ ~ ~ ~ ~ OXOXOXo +.+.+.",
"#.+.o.+.o.#.+.OX! W L G G G G F F F G L T ! ~ ~ ~ ~ ~ ~ ~ ~ ~ ~ ~ ~ ~ ~ R L P P U T T E Q ! ~ ~ ~ ~ ~ ~ ~ ~ ~ ~ ~ +XOXOXo +.#.#.",
"+.#.#.+.#.+.+.oX! W L G G G G F F G H T Q ~ ~ ~ ~ ~ ~ ~ ~ ~ ~ ~ ~ ~ ~ ~ ~ T U I U T R Q ! ~ ~ ~ ~ ~ ~ ~ ~ ~ ~ ~ ~ +XOXOX;.#.+.+.",
"#.%.#.%.#.%.#.OXQ W L G G G G F G G P W ~ T ~ ~ ~ ~ ~ ~ ~ ~ ~ ~ ~ ~ ~ ~ ~ ~ T Y T R E Q ! ~ ~ ~ ~ ~ ~ ~ ~ ~ ~ ~ ~ +XOXOX;.+.#.#.",
"#.#.%.#.%.#.%.oXW W P H G G G F G H Y Q ~ Q ~ ~ ~ ~ ~ ~ ~ ~ ~ ~ ~ ~ ~ ~ ~ ~ ! R T R E Q ! ~ ~ ~ ~ ~ ~ ~ ~ ~ ~ ~ ~ k OXoXo #.#.#.",
"o o o o o o o oXE W U H G G G G G H T ~ ~ ~ ~ ~ ~ ~ ~ ~ E ~ ~ ~ ~ ~ ~ ~ ~ ~ ~ E Y T R W ! ~ ~ ~ ~ ~ ~ ~ ~ ~ ~ ~ ~ ~ k OX,.o o o ",
"1.1.1.1.1.1.1.oXXXW T K G G G G G K Q ~ Q ~ ~ ~ ~ E ~ ~ ~ ~ ~ ~ ~ ~ ~ ~ ~ ~ ~ Q Y I T E Q ~ ~ ~ ~ ~ ~ ~ ~ ~ ~ ~ ~ ~ ~ oX+ 1.1.1.",
"1.1.1.1.1.1.1.oXoXW T K G G G G G P ! ~ ~ ~ ~ ~ ~ ~ ~ ~ ~ ~ ~ ~ ~ ~ ~ ~ ~ ~ ~ ! R I U E Q ~ ~ ~ ~ ~ ~ ~ ~ ~ ~ ~ ~ ~ ~ oX1.1.1.1.",
",.,.,.,.,.,.,.XXoXW R L G G G G G I Q ~ W ~ ~ ~ ~ ~ ~ ~ ~ ~ ~ ~ ~ ~ ~ ~ ~ ~ ~ ! E I U R Q ~ ~ ~ ~ ~ ~ ~ ~ ~ ~ ~ ~ ~ ~ XX,.,.,.,.",
"1.,.1.#.+.o...oXXXE W L H G G G G P ! ~ T E L T ~ ~ 1.;.*.>.1.+ 1.~ ~ ~ ~ ~ ~ ~ E U I R Q ~ ~ ~ ~ ~ ~ ~ ~ ~ ~ ~ ~ ~ ~ oX*.o.+.#.",
"1.,.1.*.......XXoXR W L H G G G G L T ~ K P P E ~ ,.~ ~ ~ ~ ~ ~ ~ ~ ~ ~ ~ ~ ~ ! E U I R Q ~ ~ ~ ~ ~ ~ ~ ~ ~ ~ ~ ~ ~ ~ XX*.o...%.",
"1.,.1.*.....o.XXXXXXW P H G G G G K R ~ H G L ! ~ ~ ~ ~ ~ ~ ~ ~ ~ ~ ~ ~ ~ ~ ~ ~ E T U R Q ~ ~ ~ ~ ~ ~ ~ ~ ~ ~ ~ ~ ~ ~ XXo ..o.%.",
"1.,.1.*.o.o...XXXXXXW P H G G G G K Y R G F P ~ ~ ~ ~ ~ ~ ~ ~ ~ ~ ~ ~ ~ ~ ~ ~ ~ E T T E ! ~ ~ ~ ~ ~ ~ ~ ~ ~ ~ ~ ~ ~ z XXo +.o.%.",
"1.,.1.*.o...o.XXXXY P L H G G G G G P U G F I ~ ~ ~ ~ z z z z z z z ~ ~ ~ ! ~ ! E T R Q ! ~ ~ ~ ~ ~ ~ ~ ~ ~ ~ ~ ~ ~ k XXo o.+.%.",
"1.,.1.*.o.o....XXXP E U H G G G G G H H F F Y ~ ~ z z z z z z +Xz z z ~ ~ Q ! ! T I Y W ! ~ ~ ~ ~ ~ ~ ~ ~ ~ ~ ~ ~ ~ +XXXo +.+.%.",
"1.,.1.*.o.o.o.XX.XU W T K G G G G G K G G F Y ~ ~ z z z z z z z z z z ~ W Q Q E L L P E ! ~ ~ ~ ~ ~ ~ ~ ~ ~ ~ ~ ~ z XXXXo +.o.%.",
"1.,.1.*.o.o.+..XXXU Q Q L G G G G F L K G G Y ~ z z z z z z ,.;.Q ! Q E E Q E I H H P E ! ~ ~ ~ ~ ~ ~ ~ ~ ~ ~ ~ ~ OXXX.Xo +.+.%.",
"1.,.1.*.+.#.o..X.XY Q Q U K G G G G L K K G K ! ~ Q %.#.T Y P G L I T W Q Q R K G H L E ! ~ ~ ~ ~ ~ ~ ~ ~ ~ ~ z OXXX.XXXo #.+.%.",
"1.,.1.*.+.%.#..X.XY E Q U H G G G F K L L G F L T Y K H F H G H L U E Q ~ ! R L G H L E ! ~ ~ ~ ~ ~ ~ ~ ~ ~ ~ OXXX.X.X.X;.+.#.%.",
"1.,.1.*.%.%.%..X.XY U T U H G G G G G K L G G F G G F F F G H L P R Q ~ ~ ! E U H H I W ~ ~ ~ ~ ~ ~ ~ ~ ~ ~ oXXX.X.X.X.X;.+.#.%.",
"1.,.1.*.#.%.#..X.XY U U I K G G G F F G K G F F F G F F G G G G L U E Q ! Q E U H K Y Q ~ ~ ~ ~ ~ ~ ~ ~ ~ ~ .X.X.X.X.X.X;.%.%.%.",
"1.,.1.o o o o .X.X.XY P P L K G G G F G G K F F F F F F F F G G G L U R Q E T L G L R ~ ~ ~ ~ ~ ~ ~ ~ ~ ~ k .X.X.X.X.X.X,.o o o ",
"1.,.1.1.1.1.1..X.X.XT Y Y P K G G G F F G G F F F F F F F F F G G H P U T U L K H U Q ~ ~ ~ ~ ~ ~ ~ ~ ~ ~ +X.X.X.X.X.X.X+ 1.1.1.",
"1.1.1.1.1.1.1..X.X.X.XT T Y I H G G G F G F F G G F F F F F F G G H L I I P L L U E ! ~ ~ ~ ~ ~ ~ ~ ~ ~ z OX.X.X.X.X.X.X1.1.1.1.",
",.,.,.,.,.,.,..X.X.X.XR R Q Y L G H G G G F F F G G F F F F F G G H P I I I I T Q ~ ~ ~ ~ ~ ~ ~ ~ ~ ~ ~ k XX.X.X.X.X.X.X,.,.,.,.",
"| | | | | | | .X.X.X XE Q ~ U P H G H G G F F F F G G G F F F G G H P U Y T R Q ~ ~ ~ ~ ~ ~ ~ ~ ~ ~ ~ z +X.X.X.X.X.X.X.X*.| | | ",
"o.o.o...o...o. X.X X.X X.X XT U L H G H G G F F F F G G G G G G H L I Y R Q ! ~ ~ ~ ~ ~ ~ ~ ~ ~ ~ ~ ~ z OX X.X X.X X.X X*.o.o.o.",
"o.o.o.o...o... X X.X X.X X.X XT U L G G H H G G F F G G G G H K L U T W ! ~ ~ ~ ~ ~ ~ ~ ~ ~ ~ ~ ~ ~ ~ z OX.X X.X X.X X.Xo o.o.o.",
"o.o.o...o...o. X.X X.X X.X X.XT T U L G G K H G G G G H K L I Y T E Q ~ ~ ~ ~ ~ ~ ~ ~ ~ ~ ~ ~ ~ ~ ~ ~ z OX X.X X.X X.X Xo o.o.o.",
"o.o...o.o.o... X X X X X X X X XT T U L G G K K H K P U Y T E Q ! ~ ~ ~ ~ ~ ~ ~ ~ ~ ~ ~ ~ ~ ~ ~ ~ ~ ~ ! OX X X X X X X Xo ..o.o.",
"..o.+.o.o.o.o. X X X X X X X X XT Y T U L K K L U T E Q ! ! ~ ~ ~ ~ ~ ~ ~ ~ ~ ~ ~ ~ ~ ~ ~ ~ ~ ~ ~ ~ ~ Q U L  X X.X X X X*.o.....",
"+...+.+.o.+.o. X X X X X X X X X XT Y T I P L P U R Q ~ ~ ~ ~ ~ ~ ~ ~ ~ ~ ~ ~ ~ ~ ~ ~ ~ ~ ~ ~ ~ ~ ~ ~ ~ F F  X X X X X Xo ..+.+.",
"+.+.+.+.+.o.+. X X X X X X X X X XT T Y T Y U U U T Q ~ ~ ~ ~ ~ ~ ~ ~ ~ ~ ~ ~ ~ ~ ~ ~ ~ ~ ~ ~ ~ ~ ~ ~ A A F  X X X X X Xo +.+.+.",
"#.+.o.+.o.#.+. X X X X X X X X X X XT T Y T T T Y R R ! ~ ~ ~ ~ ~ ~ ~ ~ ~ ~ ~ ~ ~ ~ ~ ~ ~ ~ ~ ~ ~ E A N A F  X X X X X Xo +.#.#.",
"+.#.#.+.#.+.+. X X X X X X X X X X XR R T Y Y T T R E ! ~ ~ ~ ~ ~ ~ ~ ~ ~ ~ ~ ~ ~ ~ ~ ~ ~ ~ ~ T H A N N A F  X X X X X X;.#.+.+.",
"#.%.#.%.#.%.#.*.o ;.;.;.o ;.;.1.,.1.>.;.;.;.;.;.;.;.o ;.o ;.;.o ;.;.;.;.;.;.;.;.o ;.;.;.o ;.;.1.,.1.>.;.;.;.;.;.;.;.o ;.;.+.#.#.",
"#.#.%.#.%.#.%.#.%.#.%.#.%.%.%.1.,.1.*.#.%.#.%.#.#.#.%.#.%.%.+.#.#.#.%.#.%.#.%.#.%.#.%.#.%.%.%.1.,.1.*.#.%.#.%.#.#.#.%.%.+.#.#.#.",
"o o o o o o o o o o o o o o o 1.,.1.o o o o o o o o o o o o o o o o o o o o o o o o o o o o o 1.,.1.o o o o o o o o o o o o o o "
};
