/* XPM */
static char *_9442c8f66f545a39be34b5e74c86fd7ADHIbdmTmp1gPzu9[] = {
/* columns rows colors chars-per-pixel */
"64 64 151 2 ",
"   c None",
".  c #312F30",
"X  c #383737",
"o  c #AA120D",
"O  c #A61311",
"+  c #A91816",
"@  c #B21B15",
"#  c #AF221E",
"$  c #B02117",
"%  c #BB241A",
"&  c #BE281E",
"*  c #B52520",
"=  c #BC332D",
"-  c #C0291D",
";  c #C32E23",
":  c #C63125",
">  c #C63228",
",  c #C93529",
"<  c #CE3A2D",
"1  c #D23F32",
"2  c #C54B3F",
"3  c #CC4C44",
"4  c #CD524A",
"5  c #C37874",
"6  c #CF807D",
"7  c #7B8F96",
"8  c #84949B",
"9  c #89969D",
"0  c #8C989F",
"q  c #BD9493",
"w  c #8B99A1",
"e  c #919CA2",
"r  c #92A2A9",
"t  c #9DA3A9",
"y  c #A2A6AA",
"u  c #A9ADB2",
"i  c #ABB1B6",
"p  c #A7B3B9",
"a  c #ABB4B9",
"s  c #AEB9BF",
"d  c #B1B3B6",
"f  c #B5B7BC",
"g  c #B9B7BB",
"h  c #B3B9BE",
"j  c #BAB8BC",
"k  c #C28788",
"l  c #C78D8E",
"z  c #FC889E",
"x  c #FC8BA1",
"c  c #EF95A6",
"v  c #FD93A9",
"b  c #C2BCBE",
"n  c #FAA3B3",
"m  c #FFA5BA",
"M  c #FEAABD",
"N  c #AFBAC0",
"B  c #B3BCC2",
"V  c #BBBDC1",
"C  c #FFAFC2",
"Z  c #BBC1C6",
"A  c #BBC3C9",
"S  c #C3C2C6",
"D  c #CBC3C6",
"F  c #C4C6CA",
"G  c #CAC6C9",
"H  c #C3CACE",
"J  c #CCCBCE",
"K  c #D2CDCF",
"L  c #C6CDD2",
"P  c #CACDD2",
"I  c #D1CED1",
"U  c #CBD1D6",
"Y  c #CFD5D8",
"T  c #D4D2D5",
"R  c #DAD5D6",
"E  c #D3D6D9",
"W  c #D9D7D9",
"Q  c #D5D9DD",
"!  c #DBDADD",
"~  c #E1DDDF",
"^  c #DBDFE2",
"/  c #E2DFE0",
"(  c #DEE1E4",
")  c #E3E3E4",
"_  c #E9E5E6",
"`  c #E3E6E9",
"'  c #EAE7E9",
"]  c #E6E9EB",
"[  c #EBEBEC",
"{  c #F3E6EC",
"}  c #FEE4EB",
"|  c #F1EEEF",
" . c #F7EDED",
".. c #ECEEF0",
"X. c #EEEFF1",
"o. c #EDEFF0",
"O. c #F1EFF0",
"+. c #F1EFF0",
"@. c #FCEAF0",
"#. c #FDEDF2",
"$. c #EFF1F2",
"%. c #EFF1F2",
"&. c #F2F0F1",
"*. c #F3F1F2",
"=. c #F3F2F2",
"-. c #F1F2F3",
";. c #F4F2F3",
":. c #F1F3F4",
">. c #F2F3F4",
",. c #F5F3F4",
"<. c #F5F4F4",
"1. c #F6F4F5",
"2. c #F7F5F6",
"3. c #F7F6F7",
"4. c #F6F7F7",
"5. c gray97",
"6. c #F5F6F7",
"7. c #F3F4F5",
"8. c #F9F5F7",
"9. c #F8F7F7",
"0. c #FEF4F6",
"q. c #F8F7F7",
"w. c #F6F7F8",
"e. c #F6F7F8",
"r. c #F7F8F9",
"t. c #F7F8F8",
"y. c #F7F8F9",
"u. c #F9F8F8",
"i. c #F9F8F9",
"p. c #FAF9F9",
"a. c #F9F9FA",
"s. c #F9FAFA",
"d. c gray98",
"f. c #FAFAFB",
"g. c #FBFAFB",
"h. c #FAFBFB",
"j. c #FBFAFA",
"k. c #FCFBFB",
"l. c #FBFBFC",
"z. c gray99",
"x. c #FCFDFD",
"c. c #FDFDFD",
"v. c #FDFCFD",
"b. c #FDFDFE",
"n. c #FEFEFE",
"m. c #FFFEFE",
"M. c #FEFEFF",
"N. c white",
"B. c #FFFEFF",
"V. c #FEFDFE",
"C. c #FEFEFE",
/* pixels */
"                                                                                                                                ",
"                                                                                                                                ",
"                                                                                                                                ",
"                                                                                                                                ",
"                                                                                                                                ",
"                                                                                                                                ",
"                                                                                                                                ",
"                                                                                                                                ",
"                                                                                                                                ",
"                                                                                                                                ",
"                                                      z                                                                         ",
"                                                    z z z       z z                                                             ",
"                                                    z z z         z                   R                                         ",
"                                                      z z                   R x.;.  | x.6.                                      ",
"                                                                    M       i.x.x.) x.x.x.J     ~ /                             ",
"                                  R ~     _ ~             z z   z z M M } x._ x.x.8.x.x.x.!   [ x.x.!   | !                     ",
"                                  x.x.[ [ x.x.          z z z z z z m C x.x.x.| ,.x.x._ x.( W x.x.x.+.x.x.x.                    ",
"                                E x.x.x.' x.x.[ x.[     z z z z z z v ;.x.x.x.8.R x.x._ x.] 8.( ^ ! H x.x.x.R )                 ",
"                        x.x.|   ! x.x.x.6.;.[ x.x.x.8.x.  z z z z z z k.x.| x.x.) x.x.) x.$.W ^ T ^ H [ [ k.x.x.)               ",
"                  x.x.~ x.x.x.[ ( x._ x.x.R k.x.x.x._ x.R c z z z z x [ x.+.x.x.| x.x._ x.7.E ^ Q ( H _ x.x...^ Q               ",
"                ! x.x.! U ^ ^ $.] x.| x.x.~ x.x.| x.[ u.x.8.  z z z M x.;.[ [ 6.x.x.x.[ x.p.Q ! ^ ^ ) x.x.[ ( ^ I               ",
"            ! p.{ [ x.~ E ^ ! ^ [ x.p.x.x.' x.x.8.x.| x.x.x.  z z z 0.p.p.x.x.x.8.~ k.+.x.x.E J ^ ) x.x.t.W ( (                 ",
"            ^ +.x.x.| ) Y ( K ^ [ x.x.&.x.,.x.x.k.) _ | [ k.    z M ) [ h.f $.6.( ( ~ 8.x.x.W G ! x.x.x.T [ ] ! A B f           ",
"            E ^ ( x.x.x.U ( E ^ ' h.x.W x.x.x.k._ x.x.x.&.[     n z.| 8.! X F Q E ( ! p.x.x.! I x.x.x.! :.$.[ A A B B           ",
"              ( ( T x.x.x./ ( E ) x.x.I i.x.x.| x.x.x.d . E T   ' z.6 / x.{ } ' U ^ ( W x.x.E x.x.x.[ :.w.:.^ V A B             ",
"            g Q ) ] R x.x.x.) D W x.x.~ [ x.x.+.x._ _ ! F ^ l 1 k 3 4 ! ,.i.[ Q U ( ( ^ p.w.,.x.x.i._ h.r.:.S A A L U U P       ",
"          s s h ] ..:.T x.x.x./ W x.x.| ~ x.x.x.x.,.#.@.( ^        .x.x.K ] ) ` ] ] ( ^ ) ) x.x.x.W x.h.a.P G U U U U U U       ",
"          s s h J $.6.i.R x.x.x.! p.x.k.W x.;.x.x.,.T T E b       _ x.x.R ..p.h.t.[ ] ^ T x.x.x.I x.x.a.T P U U U P P U U       ",
"          V s s h ! t.h.h.T x.x.x._ p.x.) x._ x.x.x.x.` (           x.x.p.8.x.x.x.:...^ P x.x.T k.x.) P U U U P S U U U         ",
"      ^ ^ ^ ^ Q J B [ h.x.x.R x.x.x.[ x.W x.| x.x.x.x.[ ]           [ x._ x.x.x.x.p.&.^ P h.! +.p.I U U U U G P U U U S         ",
"      ^ ^ ! ^ Q Q Q Y W k.x.z.I x.x.&.:._ x.z.x.x.x.x.$.[ E           | x.x.x.x.x.x.:.^ P ! ) ..P U U U P S U U U U             ",
"      T ^ ^ U T Q Q Y Y U W k.i.I w.x./ [ { x.x.x.x.x.6.$...          x.x.x.x.x.x.x.,.Q L W ] P U U U S P U U U P V             ",
"        E ( ( Q J P Y Y U L H ] &.P ..p.( ;.x.x.x.x.x.p.7.$.E       k.x.x.x.x.x.x.x.p.^ H ( P U U J S U U U U H h s             ",
"          P Q Q Q Q G H U U U H T ' P ) W x.x.x.x.x.x.x.6.>.'     _ x.x.x.x.x.x.x.x.p.( H L P P S U U U U P V N N f             ",
"              Q Q Q E Y G F L H H F ( J x.x.x.x.x.x.x.x.t.7.$.    x.x.x.x.x.x.x.x.x.t.] A F S P U U U U S f s s h               ",
"            f s Z Q Y Y U U F S A Z I x.x.x.x.x.x.x.x.x.p.6.&.  / x.x.x.x.x.x.x.x.x.t.:.H B U U U L V j s s s h                 ",
"              s s f S U U U L H F ] &.x.x.x.x.x.x.x.x.x.t.6.$.E p.x.x.x.x.x.x.x.x.x.p.6.A B h h N j h s s s h                   ",
"                s s s j j S L H W x.E &.w.x.x.x.x.x.x.x.t.7.$.Q x.x.x.x.x.x.x.x.x.x.w.:.A A Z u B N N N s                       ",
"                  h s s s f f S ) ..7.[ 7.w.x.x.x.x.x.x.6.$.[ E x.x.x.x.x.x.x.x.x.h.7.&.Z ^ h 9 s s s f                         ",
"                    f s s s s ) ) ( x.! $.7.p.x.x.x.x.p.7.$.[ T x.x.x.x.x.x.x.x.x.7.$.o.A E i w s f                             ",
"                        f N s I Q T [ E [ $.7.7.6.t.6.$.$.[ ] T x.x.x.x.x.x.x.x.x.&...] Y N 8 w                                 ",
"                              J Q Q V U ] [ %.$.$.$.%.....] ` G x.x.x.x.x.x.x.x.7...] ) N t 9 w                                 ",
"                                E Y s B ) ] ] ] [ ....] ` ( (   ( t.x.x.x.x.x...] ] ] Q s a 9 t                                 ",
"                                E ! s h ( ( ` ` ` ` ` ( ( ( Q   P ( ` [ [ ] ] ] ] ) ) P s p 7 y                                 ",
"                                G ^ Z s Y ( ^ ( ( ( ^ ^ ^ ( D     ^ ( ( ) ( ( ( ( ( ( H s w 7                                   ",
"                                  T ( P A L ^ ^ ( ( ^ ^ Q P       K ^ ^ ^ ^ ( ^ ^ ( ( h r 7 y                                   ",
"                                    I E s N N A L U L H H           E ^ ^ ^ ^ ^ ^ ( A a 7 t                                     ",
"                                          s s N N B B q               I ^ ( ^ ^ ^ L A 5                                         ",
"                                          >           $ -               2 D E T J     :                                         ",
"                                          : &       o % ; @ o         % : %           : @                                       ",
"                                        @ @   ;         % < @       o % ,   @ O     : & @                                       ",
"                                            @           =     *   < %   ;       + @   ,   %                                     ",
"                                            #                                         ;                                         ",
"                                                                                                                                ",
"                                                                                                                                ",
"                                                                                                                                ",
"                                                                                                                                ",
"                                                                                                                                ",
"                                                                                                                                ",
"                                                                                                                                ",
"                                                                                                                                ",
"                                                                                                                                ",
"                                                                                                                                ",
"                                                                                                                                "
};
